<svg width="48" height="48" viewBox="0 0 48 48" fill="none" xmlns="http://www.w3.org/2000/svg">
<rect width="48" height="48" rx="4" fill="#3F41DB"/>
<path fill-rule="evenodd" clip-rule="evenodd" d="M25.3539 20.9538C25.1077 20.7076 24.7385 20.7076 24.4923 20.9538L9.78462 35.6615C9.04616 36.3999 9.04616 37.5076 9.78462 38.2461C10.5231 38.9846 11.6308 38.9846 12.3692 38.2461L27.0769 23.5384C27.3231 23.2923 27.3231 22.923 27.0769 22.6769L25.3539 20.9538ZM29.6615 20.9538L31.6308 18.9846C32 18.6153 32 18.0615 31.6308 17.6923L30.3385 16.3999C29.9692 16.0307 29.4154 16.0307 29.0462 16.3999L27.0769 18.3692C26.8308 18.6153 26.8308 18.9846 27.0769 19.2307L28.8 20.9538C29.0462 21.1999 29.4154 21.1999 29.6615 20.9538ZM14.4 15.1692C16.7385 15.9076 18.5846 17.6923 19.3231 20.0923C19.4462 20.4615 19.9385 20.4615 20.0615 20.0923C20.8 17.7538 22.5846 15.9076 24.9846 15.1692C25.3539 15.0461 25.3539 14.5538 24.9846 14.4307C22.6462 13.6923 20.8 11.9076 20.0615 9.50764C19.9385 9.13841 19.4462 9.13841 19.3231 9.50764C18.5846 11.8461 16.8 13.6923 14.4 14.4307C14.0923 14.5538 14.0923 15.0461 14.4 15.1692ZM38.5231 26.7999C36.4308 26.123 34.8308 24.523 34.1539 22.4307C34.0308 22.123 33.6 22.123 33.4769 22.4307C32.8 24.523 31.2 26.123 29.1077 26.7999C28.8 26.923 28.8 27.3538 29.1077 27.4769C31.2 28.1538 32.8 29.7538 33.4769 31.8461C33.6 32.1538 34.0308 32.1538 34.1539 31.8461C34.8308 29.7538 36.4308 28.1538 38.5231 27.4769C38.8308 27.3538 38.8308 26.8615 38.5231 26.7999ZM31.5692 13.1999C33.1692 13.6923 34.3385 14.8615 34.8308 16.4615C34.8923 16.7076 35.2615 16.7076 35.3231 16.4615C35.8154 14.8615 36.9846 13.6923 38.5846 13.1999C38.8308 13.1384 38.8308 12.7692 38.5846 12.7076C36.9846 12.2153 35.8154 11.0461 35.3231 9.4461C35.2615 9.19994 34.8923 9.19994 34.8308 9.4461C34.3385 11.0461 33.1692 12.2153 31.5692 12.7076C31.3231 12.7692 31.3231 13.1384 31.5692 13.1999Z" fill="white"/>
</svg>
